<?xml version="1.0" encoding="UTF-8"?>
<svg xmlns="http://www.w3.org/2000/svg" xmlns:xlink="http://www.w3.org/1999/xlink" viewBox="0 0 40 40" version="1.1" width="80px" height="80px">
<g id="surface1">
<path style=" fill:#DFF0FE;" d="M 12.949219 35 C 9.492188 35 6.109375 34.175781 3.054688 32.605469 C 6.644531 32.5625 10.027344 31.375 12.851563 29.164063 L 13.957031 28.296875 L 12.550781 28.269531 C 9.699219 28.21875 7.171875 26.519531 6.027344 23.964844 C 6.261719 23.984375 6.492188 23.992188 6.726563 23.992188 C 7.46875 23.992188 8.203125 23.894531 8.910156 23.703125 L 10.949219 23.144531 L 8.878906 22.730469 C 5.726563 22.097656 3.375 19.449219 3.0625 16.292969 C 4.003906 16.691406 5.019531 16.917969 6.042969 16.949219 L 7.789063 17.007813 L 6.335938 16.035156 C 4.304688 14.679688 3.089844 12.40625 3.089844 9.964844 C 3.089844 8.914063 3.316406 7.882813 3.742188 6.9375 C 7.785156 11.570313 13.554688 14.382813 19.6875 14.6875 L 20.347656 14.722656 L 20.199219 14.078125 C 20.074219 13.535156 20.011719 12.976563 20.011719 12.414063 C 20.011719 8.390625 23.285156 5.117188 27.308594 5.117188 C 29.320313 5.117188 31.261719 5.957031 32.636719 7.421875 L 32.824219 7.621094 L 33.097656 7.570313 C 34.433594 7.304688 35.722656 6.878906 36.949219 6.289063 C 36.34375 7.433594 35.464844 8.367188 34.355469 9.03125 L 33.957031 9.269531 L 34.320313 10 L 34.6875 9.984375 C 35.675781 9.863281 36.625 9.65625 37.5625 9.355469 C 36.753906 10.3125 35.835938 11.167969 34.816406 11.902344 L 34.597656 12.058594 L 34.609375 12.328125 C 34.625 12.65625 34.632813 12.988281 34.632813 13.316406 C 34.632813 23.976563 26.523438 35 12.949219 35 Z "/>
<path style=" fill:#4788C7;" d="M 27.308594 5.617188 C 29.183594 5.617188 30.988281 6.398438 32.269531 7.761719 L 32.648438 8.167969 L 33.191406 8.058594 C 33.996094 7.902344 34.785156 7.683594 35.554688 7.410156 C 35.132813 7.875 34.644531 8.273438 34.097656 8.601563 L 33.308594 9.109375 L 33.734375 9.945313 L 34.050781 10.566406 L 34.746094 10.480469 C 35.171875 10.429688 35.589844 10.363281 36 10.277344 C 35.535156 10.714844 35.042969 11.121094 34.523438 11.496094 L 34.085938 11.8125 L 34.109375 12.351563 C 34.121094 12.671875 34.128906 12.992188 34.128906 13.316406 C 34.128906 23.730469 26.207031 34.5 12.949219 34.5 C 10.222656 34.5 7.542969 33.976563 5.042969 32.964844 C 8.003906 32.585938 10.773438 31.425781 13.15625 29.554688 L 15.371094 27.820313 L 12.558594 27.769531 C 10.1875 27.722656 8.054688 26.457031 6.867188 24.492188 C 7.605469 24.480469 8.339844 24.375 9.042969 24.183594 L 13.117188 23.070313 L 8.976563 22.238281 C 6.3125 21.703125 4.265625 19.628906 3.6875 17.054688 C 4.445313 17.289063 5.230469 17.425781 6.023438 17.449219 L 9.519531 17.5625 L 6.613281 15.621094 C 4.71875 14.355469 3.589844 12.242188 3.589844 9.964844 C 3.589844 9.25 3.703125 8.546875 3.917969 7.875 C 8.011719 12.246094 13.664063 14.890625 19.664063 15.1875 L 20.984375 15.253906 L 20.6875 13.964844 C 20.574219 13.460938 20.511719 12.9375 20.511719 12.414063 C 20.511719 8.664063 23.5625 5.617188 27.308594 5.617188 M 27.308594 4.617188 C 23.003906 4.617188 19.511719 8.109375 19.511719 12.414063 C 19.511719 13.023438 19.582031 13.617188 19.714844 14.1875 C 13.234375 13.863281 7.488281 10.761719 3.644531 6.042969 C 2.972656 7.195313 2.589844 8.535156 2.589844 9.964844 C 2.589844 12.667969 3.964844 15.054688 6.058594 16.453125 C 4.777344 16.410156 3.578125 16.0625 2.527344 15.476563 C 2.527344 15.511719 2.527344 15.542969 2.527344 15.574219 C 2.527344 19.351563 5.214844 22.503906 8.78125 23.21875 C 8.125 23.398438 7.4375 23.492188 6.726563 23.492188 C 6.222656 23.492188 5.734375 23.445313 5.257813 23.355469 C 6.253906 26.449219 9.128906 28.707031 12.542969 28.769531 C 9.875 30.859375 6.511719 32.105469 2.859375 32.105469 C 2.230469 32.105469 1.609375 32.070313 1 31.996094 C 4.449219 34.210938 8.546875 35.5 12.949219 35.5 C 27.289063 35.5 35.132813 23.621094 35.132813 13.316406 C 35.132813 12.980469 35.125 12.644531 35.109375 12.308594 C 36.632813 11.210938 37.953125 9.835938 39 8.273438 C 37.613281 8.886719 36.1875 9.296875 34.625 9.488281 L 34.609375 9.460938 C 36.222656 8.496094 37.367188 7.007813 37.949219 5.1875 C 36.445313 6.078125 34.773438 6.730469 33 7.078125 C 31.578125 5.5625 29.550781 4.617188 27.308594 4.617188 Z "/>
</g>
</svg>
